<svg width="32" height="32" viewBox="0 0 32 32" fill="none" xmlns="http://www.w3.org/2000/svg">
<g clip-path="url(#clip0_2516_471)">
<path d="M10.667 14.6667V21.3334M10.667 10.6667V10.6801M16.0003 21.3334V14.6667M21.3337 21.3334V17.3334C21.3337 16.6262 21.0527 15.9479 20.5526 15.4478C20.0525 14.9477 19.3742 14.6667 18.667 14.6667C17.9597 14.6667 17.2815 14.9477 16.7814 15.4478C16.2813 15.9479 16.0003 16.6262 16.0003 17.3334" stroke="#21243D" stroke-width="1.5" stroke-linecap="round" stroke-linejoin="round"/>
<path d="M4 9.33333C4 7.91885 4.5619 6.56229 5.5621 5.5621C6.56229 4.5619 7.91885 4 9.33333 4H22.6667C24.0812 4 25.4377 4.5619 26.4379 5.5621C27.4381 6.56229 28 7.91885 28 9.33333V22.6667C28 24.0812 27.4381 25.4377 26.4379 26.4379C25.4377 27.4381 24.0812 28 22.6667 28H9.33333C7.91885 28 6.56229 27.4381 5.5621 26.4379C4.5619 25.4377 4 24.0812 4 22.6667V9.33333Z" stroke="#21243D" stroke-width="1.5" stroke-linecap="round" stroke-linejoin="round"/>
</g>
<defs>
<clipPath id="clip0_2516_471">
<rect width="32" height="32" fill="white"/>
</clipPath>
</defs>
</svg>
